<?xml version="1.0" standalone="no"?>
   <!DOCTYPE svg PUBLIC "-//W3C//DTD SVG 1.1//EN" 
   "http://www.w3.org/Graphics/SVG/1.1/DTD/svg11.dtd"><svg id="svg" version="1.1" width="1911" height="1284" xmlns="http://www.w3.org/2000/svg"><path d="M708.076 110.682 C 696.320 114.871,687.224 121.142,676.070 132.750 C 638.549 171.794,639.856 234.712,678.993 273.525 C 689.820 284.262,702.831 292.791,722.104 301.786 C 745.781 312.835,750.551 316.318,755.625 326.264 C 761.054 336.907,771.000 370.062,771.000 377.519 C 771.000 379.254,761.858 385.477,750.684 391.348 C 739.507 397.222,719.930 411.803,707.165 423.762 L 683.961 445.500 680.675 474.000 C 677.022 505.683,660.465 566.361,649.649 587.707 C 639.308 608.113,600.723 656.835,559.500 701.539 C 540.213 722.454,461.026 792.075,418.500 825.506 C 400.350 839.774,379.425 857.773,372.000 865.503 C 364.575 873.233,342.125 893.547,322.111 910.644 C 287.768 939.983,285.608 942.486,283.710 955.146 C 282.604 962.524,278.643 973.047,274.908 978.530 C 268.917 987.327,266.605 988.467,255.262 988.219 C 243.223 987.956,241.030 989.291,220.762 1009.219 C 186.679 1042.731,161.794 1097.792,161.366 1140.640 C 161.161 1161.149,166.819 1176.000,174.837 1176.000 C 176.871 1176.000,188.013 1166.708,199.596 1155.352 C 218.339 1136.977,222.569 1134.307,238.030 1131.098 C 247.585 1129.114,286.025 1117.438,323.451 1105.150 C 418.843 1073.832,491.153 1051.667,528.000 1042.449 C 564.241 1033.384,609.099 1019.830,706.500 988.517 C 744.450 976.317,809.250 956.066,850.500 943.516 C 924.558 920.985,972.577 905.673,1060.500 876.555 C 1151.416 846.446,1198.161 832.998,1301.799 807.137 C 1335.514 798.724,1399.639 779.772,1444.299 765.021 C 1606.443 711.467,1679.942 690.265,1711.500 687.945 C 1737.514 686.032,1741.093 684.390,1747.885 671.256 C 1752.185 662.941,1751.958 662.033,1742.525 649.745 C 1727.866 630.650,1701.240 611.969,1656.213 589.188 C 1623.653 572.715,1612.614 568.566,1598.662 567.556 C 1584.591 566.539,1579.750 567.481,1572.486 572.654 C 1559.938 581.589,1554.565 580.777,1524.808 565.446 C 1501.563 553.471,1495.007 551.529,1468.500 548.773 C 1452.000 547.057,1427.025 543.721,1413.000 541.360 C 1382.511 536.226,1288.425 526.080,1246.500 523.404 C 1201.782 520.549,1136.554 511.040,1101.225 502.224 C 1033.563 485.339,961.718 445.575,914.097 398.651 C 884.160 369.154,874.549 366.208,825.715 371.560 C 807.997 373.502,790.551 375.880,786.946 376.844 C 781.249 378.368,779.953 376.891,777.031 365.549 C 765.346 320.191,754.412 304.969,726.453 295.136 C 717.640 292.036,702.818 283.384,693.516 275.910 C 627.487 222.856,657.221 114.000,737.741 114.000 C 755.732 114.000,779.294 125.967,801.269 146.266 C 817.313 161.086,836.595 171.000,849.377 171.000 C 860.145 171.000,854.894 165.447,839.250 160.291 C 829.689 157.139,817.482 149.677,808.185 141.300 C 771.184 107.959,741.338 98.831,708.076 110.682 M905.376 557.906 C 937.894 561.057,982.050 567.035,1003.500 571.191 C 1125.414 594.814,1302.697 620.592,1440.000 634.660 C 1465.575 637.280,1497.300 641.369,1510.500 643.746 C 1523.700 646.123,1551.208 650.698,1571.629 653.913 C 1592.049 657.127,1609.272 660.272,1609.901 660.901 C 1611.659 662.659,1504.483 697.214,1449.000 712.777 C 1421.775 720.413,1373.850 734.060,1342.500 743.103 C 1311.150 752.146,1258.949 766.771,1226.497 775.603 C 1155.365 794.960,1103.534 810.866,1039.500 832.986 C 1013.100 842.105,947.625 863.548,894.000 880.636 C 840.375 897.725,780.300 917.308,760.500 924.154 C 702.370 944.253,652.477 959.876,606.000 972.533 C 582.075 979.048,545.625 989.140,525.000 994.959 C 504.375 1000.778,476.025 1008.657,462.000 1012.469 C 447.975 1016.280,419.625 1024.407,399.000 1030.529 C 341.274 1047.661,310.878 1055.878,309.676 1054.676 C 309.074 1054.074,329.263 1035.440,354.540 1013.267 C 379.818 991.094,474.994 898.826,566.043 808.227 C 773.597 601.697,829.904 548.645,839.376 550.692 C 843.159 551.509,872.859 554.756,905.376 557.906 " stroke="none" fill="black" fill-rule="evenodd"/></svg>